<?xml version="1.0" encoding="UTF-8" standalone="no"?>
<!DOCTYPE svg PUBLIC "-//W3C//DTD SVG 1.1//EN"
 "http://www.w3.org/Graphics/SVG/1.1/DTD/svg11.dtd">
<!-- Generated by graphviz version 2.38.0 (20140413.2041)
 -->
<!-- Title: G Pages: 1 -->
<svg width="847pt" height="842pt"
 viewBox="0.00 0.00 847.30 842.00" xmlns="http://www.w3.org/2000/svg" xmlns:xlink="http://www.w3.org/1999/xlink">
<g id="graph0" class="graph" transform="scale(1 1) rotate(0) translate(4 838)">
<title>G</title>
<polygon fill="white" stroke="none" points="-4,4 -4,-838 843.304,-838 843.304,4 -4,4"/>
<!-- NODE 0 -->
<g id="node1" class="node"><title>NODE 0</title>
<polygon fill="none" stroke="black" points="524.311,-834 451.493,-834 451.493,-798 524.311,-798 524.311,-834"/>
<text text-anchor="middle" x="487.902" y="-818.8" font-family="Times,serif" font-size="14.00">0: &quot;grade&quot;</text>
<text text-anchor="start" x="459.447" y="-804.8" font-family="Times,serif" font-size="14.00">[]</text>
</g>
<!-- NODE 1 -->
<g id="node2" class="node"><title>NODE 1</title>
<path fill="none" stroke="black" stroke-width="2" d="M408.706,-762C408.706,-762 313.098,-762 313.098,-762 307.098,-762 301.098,-756 301.098,-750 301.098,-750 301.098,-738 301.098,-738 301.098,-732 307.098,-726 313.098,-726 313.098,-726 408.706,-726 408.706,-726 414.706,-726 420.706,-732 420.706,-738 420.706,-738 420.706,-750 420.706,-750 420.706,-756 414.706,-762 408.706,-762"/>
<text text-anchor="middle" x="360.902" y="-746.8" font-family="Times,serif" font-size="14.00">1: [&#39;1.000&#39;, &#39;0.000&#39;]</text>
<text text-anchor="start" x="309" y="-732.8" font-family="Times,serif" font-size="14.00">[&#39;&quot;grade&quot;=1.0&#39;]</text>
</g>
<!-- NODE 0&#45;&gt;NODE 1 -->
<g id="edge1" class="edge"><title>NODE 0&#45;&gt;NODE 1</title>
<path fill="none" stroke="black" d="M456.834,-797.876C440.075,-788.639 419.196,-777.131 401.2,-767.212"/>
<polygon fill="black" stroke="black" points="402.536,-763.952 392.089,-762.19 399.157,-770.082 402.536,-763.952"/>
</g>
<!-- NODE 2 -->
<g id="node3" class="node"><title>NODE 2</title>
<polygon fill="none" stroke="black" points="537.186,-762 438.617,-762 438.617,-726 537.186,-726 537.186,-762"/>
<text text-anchor="middle" x="487.902" y="-746.8" font-family="Times,serif" font-size="14.00">2: &quot;gleason&quot;</text>
<text text-anchor="start" x="446.76" y="-732.8" font-family="Times,serif" font-size="14.00">[&#39;&quot;grade&quot;=2.0&#39;]</text>
</g>
<!-- NODE 0&#45;&gt;NODE 2 -->
<g id="edge2" class="edge"><title>NODE 0&#45;&gt;NODE 2</title>
<path fill="none" stroke="black" d="M487.902,-797.697C487.902,-789.983 487.902,-780.712 487.902,-772.112"/>
<polygon fill="black" stroke="black" points="491.402,-772.104 487.902,-762.104 484.402,-772.104 491.402,-772.104"/>
</g>
<!-- NODE 29 -->
<g id="node4" class="node"><title>NODE 29</title>
<path fill="none" stroke="black" stroke-width="2" d="M670.206,-762C670.206,-762 567.598,-762 567.598,-762 561.598,-762 555.598,-756 555.598,-750 555.598,-750 555.598,-738 555.598,-738 555.598,-732 561.598,-726 567.598,-726 567.598,-726 670.206,-726 670.206,-726 676.206,-726 682.206,-732 682.206,-738 682.206,-738 682.206,-750 682.206,-750 682.206,-756 676.206,-762 670.206,-762"/>
<text text-anchor="middle" x="618.902" y="-746.8" font-family="Times,serif" font-size="14.00">29: [&#39;0.000&#39;, &#39;1.000&#39;]</text>
<text text-anchor="start" x="563.5" y="-732.8" font-family="Times,serif" font-size="14.00">[&#39;&quot;grade&quot;=4.0&#39;]</text>
</g>
<!-- NODE 0&#45;&gt;NODE 29 -->
<g id="edge3" class="edge"><title>NODE 0&#45;&gt;NODE 29</title>
<path fill="none" stroke="black" d="M519.948,-797.876C537.393,-788.554 559.167,-776.919 577.845,-766.939"/>
<polygon fill="black" stroke="black" points="579.562,-769.99 586.732,-762.19 576.263,-763.816 579.562,-769.99"/>
</g>
<!-- NODE 3 -->
<g id="node5" class="node"><title>NODE 3</title>
<path fill="none" stroke="black" stroke-width="2" d="M332.706,-690C332.706,-690 237.098,-690 237.098,-690 231.098,-690 225.098,-684 225.098,-678 225.098,-678 225.098,-652 225.098,-652 225.098,-646 231.098,-640 237.098,-640 237.098,-640 332.706,-640 332.706,-640 338.706,-640 344.706,-646 344.706,-652 344.706,-652 344.706,-678 344.706,-678 344.706,-684 338.706,-690 332.706,-690"/>
<text text-anchor="middle" x="284.902" y="-674.8" font-family="Times,serif" font-size="14.00">3: [&#39;0.000&#39;, &#39;1.000&#39;]</text>
<text text-anchor="start" x="233" y="-660.8" font-family="Times,serif" font-size="14.00">[&#39;&quot;grade&quot;=2.0&#39;,</text>
<text text-anchor="start" x="233" y="-646.8" font-family="Times,serif" font-size="14.00">&#39;&quot;gleason&quot;=10.0&#39;]</text>
</g>
<!-- NODE 2&#45;&gt;NODE 3 -->
<g id="edge4" class="edge"><title>NODE 2&#45;&gt;NODE 3</title>
<path fill="none" stroke="black" d="M442.85,-725.911C416.816,-716.036 383.517,-703.406 354.212,-692.29"/>
<polygon fill="black" stroke="black" points="355.443,-689.014 344.852,-688.74 352.961,-695.559 355.443,-689.014"/>
</g>
<!-- NODE 4 -->
<g id="node6" class="node"><title>NODE 4</title>
<path fill="none" stroke="black" stroke-width="2" d="M470.706,-690C470.706,-690 375.098,-690 375.098,-690 369.098,-690 363.098,-684 363.098,-678 363.098,-678 363.098,-652 363.098,-652 363.098,-646 369.098,-640 375.098,-640 375.098,-640 470.706,-640 470.706,-640 476.706,-640 482.706,-646 482.706,-652 482.706,-652 482.706,-678 482.706,-678 482.706,-684 476.706,-690 470.706,-690"/>
<text text-anchor="middle" x="422.902" y="-674.8" font-family="Times,serif" font-size="14.00">4: [&#39;1.000&#39;, &#39;0.000&#39;]</text>
<text text-anchor="start" x="371" y="-660.8" font-family="Times,serif" font-size="14.00">[&#39;&quot;grade&quot;=2.0&#39;,</text>
<text text-anchor="start" x="371" y="-646.8" font-family="Times,serif" font-size="14.00">&#39;&quot;gleason&quot;=3.0&#39;]</text>
</g>
<!-- NODE 2&#45;&gt;NODE 4 -->
<g id="edge5" class="edge"><title>NODE 2&#45;&gt;NODE 4</title>
<path fill="none" stroke="black" d="M473.476,-725.911C466.522,-717.673 457.949,-707.517 449.85,-697.923"/>
<polygon fill="black" stroke="black" points="452.329,-695.434 443.204,-690.05 446.98,-699.949 452.329,-695.434"/>
</g>
<!-- NODE 5 -->
<g id="node7" class="node"><title>NODE 5</title>
<polygon fill="none" stroke="black" points="606.7,-690 501.104,-690 501.104,-640 606.7,-640 606.7,-690"/>
<text text-anchor="middle" x="553.902" y="-674.8" font-family="Times,serif" font-size="14.00">5: &quot;g2&quot;</text>
<text text-anchor="start" x="509.253" y="-660.8" font-family="Times,serif" font-size="14.00">[&#39;&quot;grade&quot;=2.0&#39;,</text>
<text text-anchor="start" x="509.253" y="-646.8" font-family="Times,serif" font-size="14.00">&#39;&quot;gleason&quot;=4.0&#39;]</text>
</g>
<!-- NODE 2&#45;&gt;NODE 5 -->
<g id="edge6" class="edge"><title>NODE 2&#45;&gt;NODE 5</title>
<path fill="none" stroke="black" d="M502.549,-725.911C509.611,-717.673 518.316,-707.517 526.54,-697.923"/>
<polygon fill="black" stroke="black" points="529.437,-699.92 533.288,-690.05 524.122,-695.365 529.437,-699.92"/>
</g>
<!-- NODE 26 -->
<g id="node8" class="node"><title>NODE 26</title>
<polygon fill="none" stroke="black" points="795.7,-690 690.104,-690 690.104,-640 795.7,-640 795.7,-690"/>
<text text-anchor="middle" x="742.902" y="-674.8" font-family="Times,serif" font-size="14.00">26: &quot;g2&quot;</text>
<text text-anchor="start" x="698.253" y="-660.8" font-family="Times,serif" font-size="14.00">[&#39;&quot;grade&quot;=2.0&#39;,</text>
<text text-anchor="start" x="698.253" y="-646.8" font-family="Times,serif" font-size="14.00">&#39;&quot;gleason&quot;=5.0&#39;]</text>
</g>
<!-- NODE 2&#45;&gt;NODE 26 -->
<g id="edge7" class="edge"><title>NODE 2&#45;&gt;NODE 26</title>
<path fill="none" stroke="black" d="M537.068,-728.154C577.837,-715.843 636.052,-698.264 680.175,-684.941"/>
<polygon fill="black" stroke="black" points="681.369,-688.237 689.93,-681.995 679.345,-681.536 681.369,-688.237"/>
</g>
<!-- NODE 6 -->
<g id="node9" class="node"><title>NODE 6</title>
<polygon fill="none" stroke="black" points="303.038,-604 198.766,-604 198.766,-540 303.038,-540 303.038,-604"/>
<text text-anchor="middle" x="250.902" y="-588.8" font-family="Times,serif" font-size="14.00">6: &quot;g2&quot;</text>
<text text-anchor="start" x="206.834" y="-574.8" font-family="Times,serif" font-size="14.00">[&#39;&quot;grade&quot;=2.0&#39;,</text>
<text text-anchor="start" x="206.834" y="-560.8" font-family="Times,serif" font-size="14.00">&#39;&quot;gleason&quot;=4.0&#39;,</text>
<text text-anchor="start" x="206.834" y="-546.8" font-family="Times,serif" font-size="14.00">&#39;&quot;g2&quot;&lt;3.84&#39;]</text>
</g>
<!-- NODE 5&#45;&gt;NODE 6 -->
<g id="edge8" class="edge"><title>NODE 5&#45;&gt;NODE 6</title>
<path fill="none" stroke="black" d="M500.926,-643.1C497.883,-642.022 494.86,-640.981 491.902,-640 431.744,-620.048 361.85,-601.069 312.873,-588.439"/>
<polygon fill="black" stroke="black" points="313.615,-585.016 303.058,-585.921 311.875,-591.796 313.615,-585.016"/>
</g>
<!-- NODE 14 -->
<g id="node10" class="node"><title>NODE 14</title>
<polygon fill="none" stroke="black" points="606.038,-604 501.766,-604 501.766,-540 606.038,-540 606.038,-604"/>
<text text-anchor="middle" x="553.902" y="-588.8" font-family="Times,serif" font-size="14.00">14: &quot;age&quot;</text>
<text text-anchor="start" x="509.834" y="-574.8" font-family="Times,serif" font-size="14.00">[&#39;&quot;grade&quot;=2.0&#39;,</text>
<text text-anchor="start" x="509.834" y="-560.8" font-family="Times,serif" font-size="14.00">&#39;&quot;gleason&quot;=4.0&#39;,</text>
<text text-anchor="start" x="509.834" y="-546.8" font-family="Times,serif" font-size="14.00">&#39;&quot;g2&quot;&gt;3.84&#39;]</text>
</g>
<!-- NODE 5&#45;&gt;NODE 14 -->
<g id="edge9" class="edge"><title>NODE 5&#45;&gt;NODE 14</title>
<path fill="none" stroke="black" d="M553.902,-639.614C553.902,-631.903 553.902,-623.154 553.902,-614.59"/>
<polygon fill="black" stroke="black" points="557.402,-614.319 553.902,-604.319 550.402,-614.319 557.402,-614.319"/>
</g>
<!-- NODE 27 -->
<g id="node29" class="node"><title>NODE 27</title>
<polygon fill="none" stroke="black" points="811.038,-604 706.766,-604 706.766,-540 811.038,-540 811.038,-604"/>
<text text-anchor="middle" x="758.902" y="-588.8" font-family="Times,serif" font-size="14.00">27: &quot;g2&quot;</text>
<text text-anchor="start" x="714.834" y="-574.8" font-family="Times,serif" font-size="14.00">[&#39;&quot;grade&quot;=2.0&#39;,</text>
<text text-anchor="start" x="714.834" y="-560.8" font-family="Times,serif" font-size="14.00">&#39;&quot;gleason&quot;=5.0&#39;,</text>
<text text-anchor="start" x="714.834" y="-546.8" font-family="Times,serif" font-size="14.00">&#39;&quot;g2&quot;&lt;3.84&#39;]</text>
</g>
<!-- NODE 26&#45;&gt;NODE 27 -->
<g id="edge28" class="edge"><title>NODE 26&#45;&gt;NODE 27</title>
<path fill="none" stroke="black" d="M747.19,-639.614C748.56,-631.819 750.117,-622.961 751.639,-614.308"/>
<polygon fill="black" stroke="black" points="755.111,-614.774 753.395,-604.319 748.216,-613.562 755.111,-614.774"/>
</g>
<!-- NODE 7 -->
<g id="node11" class="node"><title>NODE 7</title>
<polygon fill="none" stroke="black" points="177.038,-504 72.766,-504 72.766,-426 177.038,-426 177.038,-504"/>
<text text-anchor="middle" x="124.902" y="-488.8" font-family="Times,serif" font-size="14.00">7: &quot;age&quot;</text>
<text text-anchor="start" x="80.834" y="-474.8" font-family="Times,serif" font-size="14.00">[&#39;&quot;grade&quot;=2.0&#39;,</text>
<text text-anchor="start" x="80.834" y="-460.8" font-family="Times,serif" font-size="14.00">&#39;&quot;gleason&quot;=4.0&#39;,</text>
<text text-anchor="start" x="80.834" y="-446.8" font-family="Times,serif" font-size="14.00">&#39;&quot;g2&quot;&lt;3.84&#39;,</text>
<text text-anchor="start" x="80.834" y="-432.8" font-family="Times,serif" font-size="14.00">&#39;&quot;g2&quot;&lt;2.4&#39;]</text>
</g>
<!-- NODE 6&#45;&gt;NODE 7 -->
<g id="edge10" class="edge"><title>NODE 6&#45;&gt;NODE 7</title>
<path fill="none" stroke="black" d="M213.439,-539.781C202.594,-530.743 190.534,-520.693 178.892,-510.992"/>
<polygon fill="black" stroke="black" points="180.843,-508.062 170.92,-504.348 176.362,-513.439 180.843,-508.062"/>
</g>
<!-- NODE 9 -->
<g id="node12" class="node"><title>NODE 9</title>
<polygon fill="none" stroke="black" points="303.038,-504 198.766,-504 198.766,-426 303.038,-426 303.038,-504"/>
<text text-anchor="middle" x="250.902" y="-488.8" font-family="Times,serif" font-size="14.00">9: &quot;g2&quot;</text>
<text text-anchor="start" x="206.834" y="-474.8" font-family="Times,serif" font-size="14.00">[&#39;&quot;grade&quot;=2.0&#39;,</text>
<text text-anchor="start" x="206.834" y="-460.8" font-family="Times,serif" font-size="14.00">&#39;&quot;gleason&quot;=4.0&#39;,</text>
<text text-anchor="start" x="206.834" y="-446.8" font-family="Times,serif" font-size="14.00">&#39;&quot;g2&quot;&lt;3.84&#39;,</text>
<text text-anchor="start" x="206.834" y="-432.8" font-family="Times,serif" font-size="14.00">&#39;&quot;g2&quot;&gt;2.4&#39;]</text>
</g>
<!-- NODE 6&#45;&gt;NODE 9 -->
<g id="edge11" class="edge"><title>NODE 6&#45;&gt;NODE 9</title>
<path fill="none" stroke="black" d="M250.902,-539.781C250.902,-531.786 250.902,-522.999 250.902,-514.362"/>
<polygon fill="black" stroke="black" points="254.402,-514.348 250.902,-504.348 247.402,-514.349 254.402,-514.348"/>
</g>
<!-- NODE 15 -->
<g id="node18" class="node"><title>NODE 15</title>
<polygon fill="none" stroke="black" points="573.038,-504 468.766,-504 468.766,-426 573.038,-426 573.038,-504"/>
<text text-anchor="middle" x="520.902" y="-488.8" font-family="Times,serif" font-size="14.00">15: &quot;g2&quot;</text>
<text text-anchor="start" x="476.834" y="-474.8" font-family="Times,serif" font-size="14.00">[&#39;&quot;grade&quot;=2.0&#39;,</text>
<text text-anchor="start" x="476.834" y="-460.8" font-family="Times,serif" font-size="14.00">&#39;&quot;gleason&quot;=4.0&#39;,</text>
<text text-anchor="start" x="476.834" y="-446.8" font-family="Times,serif" font-size="14.00">&#39;&quot;g2&quot;&gt;3.84&#39;,</text>
<text text-anchor="start" x="476.834" y="-432.8" font-family="Times,serif" font-size="14.00">&#39;&quot;age&quot;&lt;49.0&#39;]</text>
</g>
<!-- NODE 14&#45;&gt;NODE 15 -->
<g id="edge17" class="edge"><title>NODE 14&#45;&gt;NODE 15</title>
<path fill="none" stroke="black" d="M544.09,-539.781C541.55,-531.699 538.756,-522.808 536.013,-514.08"/>
<polygon fill="black" stroke="black" points="539.292,-512.839 532.954,-504.348 532.614,-514.938 539.292,-512.839"/>
</g>
<!-- NODE 24 -->
<g id="node19" class="node"><title>NODE 24</title>
<polygon fill="none" stroke="black" points="695.038,-504 590.766,-504 590.766,-426 695.038,-426 695.038,-504"/>
<text text-anchor="middle" x="642.902" y="-488.8" font-family="Times,serif" font-size="14.00">24: &quot;g2&quot;</text>
<text text-anchor="start" x="598.834" y="-474.8" font-family="Times,serif" font-size="14.00">[&#39;&quot;grade&quot;=2.0&#39;,</text>
<text text-anchor="start" x="598.834" y="-460.8" font-family="Times,serif" font-size="14.00">&#39;&quot;gleason&quot;=4.0&#39;,</text>
<text text-anchor="start" x="598.834" y="-446.8" font-family="Times,serif" font-size="14.00">&#39;&quot;g2&quot;&gt;3.84&#39;,</text>
<text text-anchor="start" x="598.834" y="-432.8" font-family="Times,serif" font-size="14.00">&#39;&quot;age&quot;&gt;49.0&#39;]</text>
</g>
<!-- NODE 14&#45;&gt;NODE 24 -->
<g id="edge18" class="edge"><title>NODE 14&#45;&gt;NODE 24</title>
<path fill="none" stroke="black" d="M580.364,-539.781C587.73,-531.091 595.889,-521.465 603.816,-512.113"/>
<polygon fill="black" stroke="black" points="606.601,-514.24 610.397,-504.348 601.261,-509.714 606.601,-514.24"/>
</g>
<!-- NODE 8 -->
<g id="node13" class="node"><title>NODE 8</title>
<path fill="none" stroke="black" stroke-width="2" d="M107.706,-390C107.706,-390 12.098,-390 12.098,-390 6.09798,-390 0.097984,-384 0.097984,-378 0.097984,-378 0.097984,-310 0.097984,-310 0.097984,-304 6.09798,-298 12.098,-298 12.098,-298 107.706,-298 107.706,-298 113.706,-298 119.706,-304 119.706,-310 119.706,-310 119.706,-378 119.706,-378 119.706,-384 113.706,-390 107.706,-390"/>
<text text-anchor="middle" x="59.9019" y="-374.8" font-family="Times,serif" font-size="14.00">8: [&#39;1.000&#39;, &#39;0.000&#39;]</text>
<text text-anchor="start" x="8" y="-360.8" font-family="Times,serif" font-size="14.00">[&#39;&quot;grade&quot;=2.0&#39;,</text>
<text text-anchor="start" x="8" y="-346.8" font-family="Times,serif" font-size="14.00">&#39;&quot;gleason&quot;=4.0&#39;,</text>
<text text-anchor="start" x="8" y="-332.8" font-family="Times,serif" font-size="14.00">&#39;&quot;g2&quot;&lt;3.84&#39;,</text>
<text text-anchor="start" x="8" y="-318.8" font-family="Times,serif" font-size="14.00">&#39;&quot;g2&quot;&lt;2.4&#39;,</text>
<text text-anchor="start" x="8" y="-304.8" font-family="Times,serif" font-size="14.00">&#39;&quot;age&quot;&lt;49.0&#39;]</text>
</g>
<!-- NODE 7&#45;&gt;NODE 8 -->
<g id="edge12" class="edge"><title>NODE 7&#45;&gt;NODE 8</title>
<path fill="none" stroke="black" d="M103.978,-425.693C99.3572,-417.234 94.3776,-408.117 89.4868,-399.163"/>
<polygon fill="black" stroke="black" points="92.5075,-397.392 84.6422,-390.294 86.3642,-400.748 92.5075,-397.392"/>
</g>
<!-- NODE 10 -->
<g id="node14" class="node"><title>NODE 10</title>
<polygon fill="none" stroke="black" points="242.038,-390 137.766,-390 137.766,-298 242.038,-298 242.038,-390"/>
<text text-anchor="middle" x="189.902" y="-374.8" font-family="Times,serif" font-size="14.00">10: &quot;age&quot;</text>
<text text-anchor="start" x="145.834" y="-360.8" font-family="Times,serif" font-size="14.00">[&#39;&quot;grade&quot;=2.0&#39;,</text>
<text text-anchor="start" x="145.834" y="-346.8" font-family="Times,serif" font-size="14.00">&#39;&quot;gleason&quot;=4.0&#39;,</text>
<text text-anchor="start" x="145.834" y="-332.8" font-family="Times,serif" font-size="14.00">&#39;&quot;g2&quot;&lt;3.84&#39;,</text>
<text text-anchor="start" x="145.834" y="-318.8" font-family="Times,serif" font-size="14.00">&#39;&quot;g2&quot;&gt;2.4&#39;,</text>
<text text-anchor="start" x="145.834" y="-304.8" font-family="Times,serif" font-size="14.00">&#39;&quot;g2&quot;&lt;3.6&#39;]</text>
</g>
<!-- NODE 9&#45;&gt;NODE 10 -->
<g id="edge13" class="edge"><title>NODE 9&#45;&gt;NODE 10</title>
<path fill="none" stroke="black" d="M231.265,-425.693C226.974,-417.322 222.353,-408.307 217.81,-399.443"/>
<polygon fill="black" stroke="black" points="220.796,-397.596 213.12,-390.294 214.567,-400.789 220.796,-397.596"/>
</g>
<!-- NODE 12 -->
<g id="node15" class="node"><title>NODE 12</title>
<polygon fill="none" stroke="black" points="364.038,-390 259.766,-390 259.766,-298 364.038,-298 364.038,-390"/>
<text text-anchor="middle" x="311.902" y="-374.8" font-family="Times,serif" font-size="14.00">12: &quot;age&quot;</text>
<text text-anchor="start" x="267.834" y="-360.8" font-family="Times,serif" font-size="14.00">[&#39;&quot;grade&quot;=2.0&#39;,</text>
<text text-anchor="start" x="267.834" y="-346.8" font-family="Times,serif" font-size="14.00">&#39;&quot;gleason&quot;=4.0&#39;,</text>
<text text-anchor="start" x="267.834" y="-332.8" font-family="Times,serif" font-size="14.00">&#39;&quot;g2&quot;&lt;3.84&#39;,</text>
<text text-anchor="start" x="267.834" y="-318.8" font-family="Times,serif" font-size="14.00">&#39;&quot;g2&quot;&gt;2.4&#39;,</text>
<text text-anchor="start" x="267.834" y="-304.8" font-family="Times,serif" font-size="14.00">&#39;&quot;g2&quot;&gt;3.6&#39;]</text>
</g>
<!-- NODE 9&#45;&gt;NODE 12 -->
<g id="edge14" class="edge"><title>NODE 9&#45;&gt;NODE 12</title>
<path fill="none" stroke="black" d="M270.538,-425.693C274.829,-417.322 279.45,-408.307 283.994,-399.443"/>
<polygon fill="black" stroke="black" points="287.237,-400.789 288.684,-390.294 281.008,-397.596 287.237,-400.789"/>
</g>
<!-- NODE 11 -->
<g id="node16" class="node"><title>NODE 11</title>
<path fill="none" stroke="black" stroke-width="2" d="M218.193,-262C218.193,-262 115.611,-262 115.611,-262 109.611,-262 103.611,-256 103.611,-250 103.611,-250 103.611,-168 103.611,-168 103.611,-162 109.611,-156 115.611,-156 115.611,-156 218.193,-156 218.193,-156 224.193,-156 230.193,-162 230.193,-168 230.193,-168 230.193,-250 230.193,-250 230.193,-256 224.193,-262 218.193,-262"/>
<text text-anchor="middle" x="166.902" y="-246.8" font-family="Times,serif" font-size="14.00">11: [&#39;1.000&#39;, &#39;0.000&#39;]</text>
<text text-anchor="start" x="111.756" y="-232.8" font-family="Times,serif" font-size="14.00">[&#39;&quot;grade&quot;=2.0&#39;,</text>
<text text-anchor="start" x="111.756" y="-218.8" font-family="Times,serif" font-size="14.00">&#39;&quot;gleason&quot;=4.0&#39;,</text>
<text text-anchor="start" x="111.756" y="-204.8" font-family="Times,serif" font-size="14.00">&#39;&quot;g2&quot;&lt;3.84&#39;,</text>
<text text-anchor="start" x="111.756" y="-190.8" font-family="Times,serif" font-size="14.00">&#39;&quot;g2&quot;&gt;2.4&#39;,</text>
<text text-anchor="start" x="111.756" y="-176.8" font-family="Times,serif" font-size="14.00">&#39;&quot;g2&quot;&lt;3.6&#39;,</text>
<text text-anchor="start" x="111.756" y="-162.8" font-family="Times,serif" font-size="14.00">&#39;&quot;age&quot;&lt;49.0&#39;]</text>
</g>
<!-- NODE 10&#45;&gt;NODE 11 -->
<g id="edge15" class="edge"><title>NODE 10&#45;&gt;NODE 11</title>
<path fill="none" stroke="black" d="M182.115,-297.972C180.691,-289.739 179.183,-281.014 177.69,-272.382"/>
<polygon fill="black" stroke="black" points="181.104,-271.584 175.951,-262.326 174.206,-272.777 181.104,-271.584"/>
</g>
<!-- NODE 13 -->
<g id="node17" class="node"><title>NODE 13</title>
<path fill="none" stroke="black" stroke-width="2" d="M363.206,-262C363.206,-262 260.598,-262 260.598,-262 254.598,-262 248.598,-256 248.598,-250 248.598,-250 248.598,-168 248.598,-168 248.598,-162 254.598,-156 260.598,-156 260.598,-156 363.206,-156 363.206,-156 369.206,-156 375.206,-162 375.206,-168 375.206,-168 375.206,-250 375.206,-250 375.206,-256 369.206,-262 363.206,-262"/>
<text text-anchor="middle" x="311.902" y="-246.8" font-family="Times,serif" font-size="14.00">13: [&#39;1.000&#39;, &#39;0.000&#39;]</text>
<text text-anchor="start" x="256.5" y="-232.8" font-family="Times,serif" font-size="14.00">[&#39;&quot;grade&quot;=2.0&#39;,</text>
<text text-anchor="start" x="256.5" y="-218.8" font-family="Times,serif" font-size="14.00">&#39;&quot;gleason&quot;=4.0&#39;,</text>
<text text-anchor="start" x="256.5" y="-204.8" font-family="Times,serif" font-size="14.00">&#39;&quot;g2&quot;&lt;3.84&#39;,</text>
<text text-anchor="start" x="256.5" y="-190.8" font-family="Times,serif" font-size="14.00">&#39;&quot;g2&quot;&gt;2.4&#39;,</text>
<text text-anchor="start" x="256.5" y="-176.8" font-family="Times,serif" font-size="14.00">&#39;&quot;g2&quot;&gt;3.6&#39;,</text>
<text text-anchor="start" x="256.5" y="-162.8" font-family="Times,serif" font-size="14.00">&#39;&quot;age&quot;&lt;49.0&#39;]</text>
</g>
<!-- NODE 12&#45;&gt;NODE 13 -->
<g id="edge16" class="edge"><title>NODE 12&#45;&gt;NODE 13</title>
<path fill="none" stroke="black" d="M311.902,-297.972C311.902,-289.739 311.902,-281.014 311.902,-272.382"/>
<polygon fill="black" stroke="black" points="315.402,-272.326 311.902,-262.326 308.402,-272.327 315.402,-272.326"/>
</g>
<!-- NODE 16 -->
<g id="node20" class="node"><title>NODE 16</title>
<polygon fill="none" stroke="black" points="512.038,-390 407.766,-390 407.766,-298 512.038,-298 512.038,-390"/>
<text text-anchor="middle" x="459.902" y="-374.8" font-family="Times,serif" font-size="14.00">16: &quot;g2&quot;</text>
<text text-anchor="start" x="415.834" y="-360.8" font-family="Times,serif" font-size="14.00">[&#39;&quot;grade&quot;=2.0&#39;,</text>
<text text-anchor="start" x="415.834" y="-346.8" font-family="Times,serif" font-size="14.00">&#39;&quot;gleason&quot;=4.0&#39;,</text>
<text text-anchor="start" x="415.834" y="-332.8" font-family="Times,serif" font-size="14.00">&#39;&quot;g2&quot;&gt;3.84&#39;,</text>
<text text-anchor="start" x="415.834" y="-318.8" font-family="Times,serif" font-size="14.00">&#39;&quot;age&quot;&lt;49.0&#39;,</text>
<text text-anchor="start" x="415.834" y="-304.8" font-family="Times,serif" font-size="14.00">&#39;&quot;g2&quot;&lt;13.44&#39;]</text>
</g>
<!-- NODE 15&#45;&gt;NODE 16 -->
<g id="edge19" class="edge"><title>NODE 15&#45;&gt;NODE 16</title>
<path fill="none" stroke="black" d="M501.265,-425.693C496.974,-417.322 492.353,-408.307 487.81,-399.443"/>
<polygon fill="black" stroke="black" points="490.796,-397.596 483.12,-390.294 484.567,-400.789 490.796,-397.596"/>
</g>
<!-- NODE 18 -->
<g id="node21" class="node"><title>NODE 18</title>
<polygon fill="none" stroke="black" points="639.038,-390 534.766,-390 534.766,-298 639.038,-298 639.038,-390"/>
<text text-anchor="middle" x="586.902" y="-374.8" font-family="Times,serif" font-size="14.00">18: &quot;g2&quot;</text>
<text text-anchor="start" x="542.834" y="-360.8" font-family="Times,serif" font-size="14.00">[&#39;&quot;grade&quot;=2.0&#39;,</text>
<text text-anchor="start" x="542.834" y="-346.8" font-family="Times,serif" font-size="14.00">&#39;&quot;gleason&quot;=4.0&#39;,</text>
<text text-anchor="start" x="542.834" y="-332.8" font-family="Times,serif" font-size="14.00">&#39;&quot;g2&quot;&gt;3.84&#39;,</text>
<text text-anchor="start" x="542.834" y="-318.8" font-family="Times,serif" font-size="14.00">&#39;&quot;age&quot;&lt;49.0&#39;,</text>
<text text-anchor="start" x="542.834" y="-304.8" font-family="Times,serif" font-size="14.00">&#39;&quot;g2&quot;&gt;13.44&#39;]</text>
</g>
<!-- NODE 15&#45;&gt;NODE 18 -->
<g id="edge20" class="edge"><title>NODE 15&#45;&gt;NODE 18</title>
<path fill="none" stroke="black" d="M542.148,-425.693C546.84,-417.234 551.896,-408.117 556.862,-399.163"/>
<polygon fill="black" stroke="black" points="559.991,-400.736 561.781,-390.294 553.87,-397.341 559.991,-400.736"/>
</g>
<!-- NODE 25 -->
<g id="node28" class="node"><title>NODE 25</title>
<path fill="none" stroke="black" stroke-width="2" d="M771.206,-390C771.206,-390 668.598,-390 668.598,-390 662.598,-390 656.598,-384 656.598,-378 656.598,-378 656.598,-310 656.598,-310 656.598,-304 662.598,-298 668.598,-298 668.598,-298 771.206,-298 771.206,-298 777.206,-298 783.206,-304 783.206,-310 783.206,-310 783.206,-378 783.206,-378 783.206,-384 777.206,-390 771.206,-390"/>
<text text-anchor="middle" x="719.902" y="-374.8" font-family="Times,serif" font-size="14.00">25: [&#39;0.983&#39;, &#39;0.017&#39;]</text>
<text text-anchor="start" x="664.5" y="-360.8" font-family="Times,serif" font-size="14.00">[&#39;&quot;grade&quot;=2.0&#39;,</text>
<text text-anchor="start" x="664.5" y="-346.8" font-family="Times,serif" font-size="14.00">&#39;&quot;gleason&quot;=4.0&#39;,</text>
<text text-anchor="start" x="664.5" y="-332.8" font-family="Times,serif" font-size="14.00">&#39;&quot;g2&quot;&gt;3.84&#39;,</text>
<text text-anchor="start" x="664.5" y="-318.8" font-family="Times,serif" font-size="14.00">&#39;&quot;age&quot;&gt;49.0&#39;,</text>
<text text-anchor="start" x="664.5" y="-304.8" font-family="Times,serif" font-size="14.00">&#39;&quot;g2&quot;&lt;8.88&#39;]</text>
</g>
<!-- NODE 24&#45;&gt;NODE 25 -->
<g id="edge27" class="edge"><title>NODE 24&#45;&gt;NODE 25</title>
<path fill="none" stroke="black" d="M667.689,-425.693C673.22,-417.145 679.184,-407.927 685.036,-398.883"/>
<polygon fill="black" stroke="black" points="688.1,-400.591 690.594,-390.294 682.223,-396.788 688.1,-400.591"/>
</g>
<!-- NODE 17 -->
<g id="node22" class="node"><title>NODE 17</title>
<path fill="none" stroke="black" stroke-width="2" d="M508.206,-262C508.206,-262 405.598,-262 405.598,-262 399.598,-262 393.598,-256 393.598,-250 393.598,-250 393.598,-168 393.598,-168 393.598,-162 399.598,-156 405.598,-156 405.598,-156 508.206,-156 508.206,-156 514.206,-156 520.206,-162 520.206,-168 520.206,-168 520.206,-250 520.206,-250 520.206,-256 514.206,-262 508.206,-262"/>
<text text-anchor="middle" x="456.902" y="-246.8" font-family="Times,serif" font-size="14.00">17: [&#39;0.999&#39;, &#39;0.001&#39;]</text>
<text text-anchor="start" x="401.5" y="-232.8" font-family="Times,serif" font-size="14.00">[&#39;&quot;grade&quot;=2.0&#39;,</text>
<text text-anchor="start" x="401.5" y="-218.8" font-family="Times,serif" font-size="14.00">&#39;&quot;gleason&quot;=4.0&#39;,</text>
<text text-anchor="start" x="401.5" y="-204.8" font-family="Times,serif" font-size="14.00">&#39;&quot;g2&quot;&gt;3.84&#39;,</text>
<text text-anchor="start" x="401.5" y="-190.8" font-family="Times,serif" font-size="14.00">&#39;&quot;age&quot;&lt;49.0&#39;,</text>
<text text-anchor="start" x="401.5" y="-176.8" font-family="Times,serif" font-size="14.00">&#39;&quot;g2&quot;&lt;13.44&#39;,</text>
<text text-anchor="start" x="401.5" y="-162.8" font-family="Times,serif" font-size="14.00">&#39;&quot;g2&quot;&lt;11.28&#39;]</text>
</g>
<!-- NODE 16&#45;&gt;NODE 17 -->
<g id="edge21" class="edge"><title>NODE 16&#45;&gt;NODE 17</title>
<path fill="none" stroke="black" d="M458.886,-297.972C458.7,-289.739 458.504,-281.014 458.309,-272.382"/>
<polygon fill="black" stroke="black" points="461.807,-272.245 458.082,-262.326 454.809,-272.403 461.807,-272.245"/>
</g>
<!-- NODE 19 -->
<g id="node23" class="node"><title>NODE 19</title>
<polygon fill="none" stroke="black" points="642.038,-262 537.766,-262 537.766,-156 642.038,-156 642.038,-262"/>
<text text-anchor="middle" x="589.902" y="-246.8" font-family="Times,serif" font-size="14.00">19: &quot;age&quot;</text>
<text text-anchor="start" x="545.834" y="-232.8" font-family="Times,serif" font-size="14.00">[&#39;&quot;grade&quot;=2.0&#39;,</text>
<text text-anchor="start" x="545.834" y="-218.8" font-family="Times,serif" font-size="14.00">&#39;&quot;gleason&quot;=4.0&#39;,</text>
<text text-anchor="start" x="545.834" y="-204.8" font-family="Times,serif" font-size="14.00">&#39;&quot;g2&quot;&gt;3.84&#39;,</text>
<text text-anchor="start" x="545.834" y="-190.8" font-family="Times,serif" font-size="14.00">&#39;&quot;age&quot;&lt;49.0&#39;,</text>
<text text-anchor="start" x="545.834" y="-176.8" font-family="Times,serif" font-size="14.00">&#39;&quot;g2&quot;&gt;13.44&#39;,</text>
<text text-anchor="start" x="545.834" y="-162.8" font-family="Times,serif" font-size="14.00">&#39;&quot;g2&quot;&lt;17.04&#39;]</text>
</g>
<!-- NODE 18&#45;&gt;NODE 19 -->
<g id="edge22" class="edge"><title>NODE 18&#45;&gt;NODE 19</title>
<path fill="none" stroke="black" d="M587.918,-297.972C588.103,-289.739 588.3,-281.014 588.495,-272.382"/>
<polygon fill="black" stroke="black" points="591.995,-272.403 588.722,-262.326 584.997,-272.245 591.995,-272.403"/>
</g>
<!-- NODE 22 -->
<g id="node24" class="node"><title>NODE 22</title>
<polygon fill="none" stroke="black" points="776.038,-262 671.766,-262 671.766,-156 776.038,-156 776.038,-262"/>
<text text-anchor="middle" x="723.902" y="-246.8" font-family="Times,serif" font-size="14.00">22: &quot;g2&quot;</text>
<text text-anchor="start" x="679.834" y="-232.8" font-family="Times,serif" font-size="14.00">[&#39;&quot;grade&quot;=2.0&#39;,</text>
<text text-anchor="start" x="679.834" y="-218.8" font-family="Times,serif" font-size="14.00">&#39;&quot;gleason&quot;=4.0&#39;,</text>
<text text-anchor="start" x="679.834" y="-204.8" font-family="Times,serif" font-size="14.00">&#39;&quot;g2&quot;&gt;3.84&#39;,</text>
<text text-anchor="start" x="679.834" y="-190.8" font-family="Times,serif" font-size="14.00">&#39;&quot;age&quot;&lt;49.0&#39;,</text>
<text text-anchor="start" x="679.834" y="-176.8" font-family="Times,serif" font-size="14.00">&#39;&quot;g2&quot;&gt;13.44&#39;,</text>
<text text-anchor="start" x="679.834" y="-162.8" font-family="Times,serif" font-size="14.00">&#39;&quot;g2&quot;&gt;17.04&#39;]</text>
</g>
<!-- NODE 18&#45;&gt;NODE 22 -->
<g id="edge23" class="edge"><title>NODE 18&#45;&gt;NODE 22</title>
<path fill="none" stroke="black" d="M633.284,-297.972C643.153,-288.391 653.709,-278.143 664.002,-268.151"/>
<polygon fill="black" stroke="black" points="666.699,-270.411 671.436,-260.934 661.823,-265.388 666.699,-270.411"/>
</g>
<!-- NODE 20 -->
<g id="node25" class="node"><title>NODE 20</title>
<path fill="none" stroke="black" stroke-width="2" d="M496.206,-120C496.206,-120 393.598,-120 393.598,-120 387.598,-120 381.598,-114 381.598,-108 381.598,-108 381.598,-12 381.598,-12 381.598,-6 387.598,-7.10543e-15 393.598,-7.10543e-15 393.598,-7.10543e-15 496.206,-7.10543e-15 496.206,-7.10543e-15 502.206,-7.10543e-15 508.206,-6 508.206,-12 508.206,-12 508.206,-108 508.206,-108 508.206,-114 502.206,-120 496.206,-120"/>
<text text-anchor="middle" x="444.902" y="-104.8" font-family="Times,serif" font-size="14.00">20: [&#39;0.999&#39;, &#39;0.001&#39;]</text>
<text text-anchor="start" x="389.5" y="-90.8" font-family="Times,serif" font-size="14.00">[&#39;&quot;grade&quot;=2.0&#39;,</text>
<text text-anchor="start" x="389.5" y="-76.8" font-family="Times,serif" font-size="14.00">&#39;&quot;gleason&quot;=4.0&#39;,</text>
<text text-anchor="start" x="389.5" y="-62.8" font-family="Times,serif" font-size="14.00">&#39;&quot;g2&quot;&gt;3.84&#39;,</text>
<text text-anchor="start" x="389.5" y="-48.8" font-family="Times,serif" font-size="14.00">&#39;&quot;age&quot;&lt;49.0&#39;,</text>
<text text-anchor="start" x="389.5" y="-34.8" font-family="Times,serif" font-size="14.00">&#39;&quot;g2&quot;&gt;13.44&#39;,</text>
<text text-anchor="start" x="389.5" y="-20.8" font-family="Times,serif" font-size="14.00">&#39;&quot;g2&quot;&lt;17.04&#39;,</text>
<text text-anchor="start" x="389.5" y="-6.8" font-family="Times,serif" font-size="14.00">&#39;&quot;age&quot;&lt;47.0&#39;]</text>
</g>
<!-- NODE 19&#45;&gt;NODE 20 -->
<g id="edge24" class="edge"><title>NODE 19&#45;&gt;NODE 20</title>
<path fill="none" stroke="black" d="M538.372,-155.759C529.291,-146.553 519.729,-136.859 510.328,-127.328"/>
<polygon fill="black" stroke="black" points="512.695,-124.744 503.18,-120.082 507.711,-129.66 512.695,-124.744"/>
</g>
<!-- NODE 21 -->
<g id="node26" class="node"><title>NODE 21</title>
<path fill="none" stroke="black" stroke-width="2" d="M641.206,-120C641.206,-120 538.598,-120 538.598,-120 532.598,-120 526.598,-114 526.598,-108 526.598,-108 526.598,-12 526.598,-12 526.598,-6 532.598,-7.10543e-15 538.598,-7.10543e-15 538.598,-7.10543e-15 641.206,-7.10543e-15 641.206,-7.10543e-15 647.206,-7.10543e-15 653.206,-6 653.206,-12 653.206,-12 653.206,-108 653.206,-108 653.206,-114 647.206,-120 641.206,-120"/>
<text text-anchor="middle" x="589.902" y="-104.8" font-family="Times,serif" font-size="14.00">21: [&#39;0.999&#39;, &#39;0.001&#39;]</text>
<text text-anchor="start" x="534.5" y="-90.8" font-family="Times,serif" font-size="14.00">[&#39;&quot;grade&quot;=2.0&#39;,</text>
<text text-anchor="start" x="534.5" y="-76.8" font-family="Times,serif" font-size="14.00">&#39;&quot;gleason&quot;=4.0&#39;,</text>
<text text-anchor="start" x="534.5" y="-62.8" font-family="Times,serif" font-size="14.00">&#39;&quot;g2&quot;&gt;3.84&#39;,</text>
<text text-anchor="start" x="534.5" y="-48.8" font-family="Times,serif" font-size="14.00">&#39;&quot;age&quot;&lt;49.0&#39;,</text>
<text text-anchor="start" x="534.5" y="-34.8" font-family="Times,serif" font-size="14.00">&#39;&quot;g2&quot;&gt;13.44&#39;,</text>
<text text-anchor="start" x="534.5" y="-20.8" font-family="Times,serif" font-size="14.00">&#39;&quot;g2&quot;&lt;17.04&#39;,</text>
<text text-anchor="start" x="534.5" y="-6.8" font-family="Times,serif" font-size="14.00">&#39;&quot;age&quot;&gt;47.0&#39;]</text>
</g>
<!-- NODE 19&#45;&gt;NODE 21 -->
<g id="edge25" class="edge"><title>NODE 19&#45;&gt;NODE 21</title>
<path fill="none" stroke="black" d="M589.902,-155.759C589.902,-147.455 589.902,-138.755 589.902,-130.136"/>
<polygon fill="black" stroke="black" points="593.402,-130.082 589.902,-120.082 586.402,-130.082 593.402,-130.082"/>
</g>
<!-- NODE 23 -->
<g id="node27" class="node"><title>NODE 23</title>
<path fill="none" stroke="black" stroke-width="2" d="M786.206,-120C786.206,-120 683.598,-120 683.598,-120 677.598,-120 671.598,-114 671.598,-108 671.598,-108 671.598,-12 671.598,-12 671.598,-6 677.598,-7.10543e-15 683.598,-7.10543e-15 683.598,-7.10543e-15 786.206,-7.10543e-15 786.206,-7.10543e-15 792.206,-7.10543e-15 798.206,-6 798.206,-12 798.206,-12 798.206,-108 798.206,-108 798.206,-114 792.206,-120 786.206,-120"/>
<text text-anchor="middle" x="734.902" y="-104.8" font-family="Times,serif" font-size="14.00">23: [&#39;1.000&#39;, &#39;0.000&#39;]</text>
<text text-anchor="start" x="679.5" y="-90.8" font-family="Times,serif" font-size="14.00">[&#39;&quot;grade&quot;=2.0&#39;,</text>
<text text-anchor="start" x="679.5" y="-76.8" font-family="Times,serif" font-size="14.00">&#39;&quot;gleason&quot;=4.0&#39;,</text>
<text text-anchor="start" x="679.5" y="-62.8" font-family="Times,serif" font-size="14.00">&#39;&quot;g2&quot;&gt;3.84&#39;,</text>
<text text-anchor="start" x="679.5" y="-48.8" font-family="Times,serif" font-size="14.00">&#39;&quot;age&quot;&lt;49.0&#39;,</text>
<text text-anchor="start" x="679.5" y="-34.8" font-family="Times,serif" font-size="14.00">&#39;&quot;g2&quot;&gt;13.44&#39;,</text>
<text text-anchor="start" x="679.5" y="-20.8" font-family="Times,serif" font-size="14.00">&#39;&quot;g2&quot;&gt;17.04&#39;,</text>
<text text-anchor="start" x="679.5" y="-6.8" font-family="Times,serif" font-size="14.00">&#39;&quot;g2&quot;&gt;22.56&#39;]</text>
</g>
<!-- NODE 22&#45;&gt;NODE 23 -->
<g id="edge26" class="edge"><title>NODE 22&#45;&gt;NODE 23</title>
<path fill="none" stroke="black" d="M727.811,-155.759C728.432,-147.455 729.083,-138.755 729.728,-130.136"/>
<polygon fill="black" stroke="black" points="733.225,-130.316 730.481,-120.082 726.244,-129.793 733.225,-130.316"/>
</g>
<!-- NODE 28 -->
<g id="node30" class="node"><title>NODE 28</title>
<path fill="none" stroke="black" stroke-width="2" d="M827.206,-504C827.206,-504 724.598,-504 724.598,-504 718.598,-504 712.598,-498 712.598,-492 712.598,-492 712.598,-438 712.598,-438 712.598,-432 718.598,-426 724.598,-426 724.598,-426 827.206,-426 827.206,-426 833.206,-426 839.206,-432 839.206,-438 839.206,-438 839.206,-492 839.206,-492 839.206,-498 833.206,-504 827.206,-504"/>
<text text-anchor="middle" x="775.902" y="-488.8" font-family="Times,serif" font-size="14.00">28: [&#39;0.999&#39;, &#39;0.001&#39;]</text>
<text text-anchor="start" x="720.5" y="-474.8" font-family="Times,serif" font-size="14.00">[&#39;&quot;grade&quot;=2.0&#39;,</text>
<text text-anchor="start" x="720.5" y="-460.8" font-family="Times,serif" font-size="14.00">&#39;&quot;gleason&quot;=5.0&#39;,</text>
<text text-anchor="start" x="720.5" y="-446.8" font-family="Times,serif" font-size="14.00">&#39;&quot;g2&quot;&lt;3.84&#39;,</text>
<text text-anchor="start" x="720.5" y="-432.8" font-family="Times,serif" font-size="14.00">&#39;&quot;g2&quot;&lt;2.4&#39;]</text>
</g>
<!-- NODE 27&#45;&gt;NODE 28 -->
<g id="edge29" class="edge"><title>NODE 27&#45;&gt;NODE 28</title>
<path fill="none" stroke="black" d="M763.956,-539.781C765.251,-531.786 766.673,-522.999 768.072,-514.362"/>
<polygon fill="black" stroke="black" points="771.55,-514.779 769.693,-504.348 764.64,-513.661 771.55,-514.779"/>
</g>
</g>
</svg>
